<mxfile host="Electron" agent="Mozilla/5.0 (Windows NT 10.0; Win64; x64) AppleWebKit/537.36 (KHTML, like Gecko) draw.io/24.7.17 Chrome/128.0.6613.36 Electron/32.0.1 Safari/537.36" version="24.7.17">
  <diagram name="Страница — 1" id="9AScFXdpI2X2kvbhoq80">
    <mxGraphModel dx="1147" dy="675" grid="1" gridSize="10" guides="1" tooltips="1" connect="1" arrows="1" fold="1" page="1" pageScale="1" pageWidth="1169" pageHeight="1654" math="0" shadow="0">
      <root>
        <mxCell id="0" />
        <mxCell id="1" parent="0" />
        <mxCell id="Yg7wzL1NHxzCarzFCjVd-9" value="Преподаватель" style="swimlane;whiteSpace=wrap;html=1;" vertex="1" parent="1">
          <mxGeometry x="190" y="110" width="200" height="360" as="geometry" />
        </mxCell>
        <mxCell id="Yg7wzL1NHxzCarzFCjVd-14" value="Авторизация в&lt;div&gt;ЭИОС&lt;/div&gt;" style="rounded=1;whiteSpace=wrap;html=1;" vertex="1" parent="Yg7wzL1NHxzCarzFCjVd-9">
          <mxGeometry x="40" y="45" width="120" height="60" as="geometry" />
        </mxCell>
        <mxCell id="Yg7wzL1NHxzCarzFCjVd-16" value="Проставление баллов за итоговую аттестацию" style="rounded=1;whiteSpace=wrap;html=1;" vertex="1" parent="Yg7wzL1NHxzCarzFCjVd-9">
          <mxGeometry x="40" y="150" width="120" height="60" as="geometry" />
        </mxCell>
        <mxCell id="Yg7wzL1NHxzCarzFCjVd-17" value="Сохранение баллов за аттестацию" style="rounded=1;whiteSpace=wrap;html=1;" vertex="1" parent="Yg7wzL1NHxzCarzFCjVd-9">
          <mxGeometry x="40" y="260" width="120" height="60" as="geometry" />
        </mxCell>
        <mxCell id="Yg7wzL1NHxzCarzFCjVd-24" value="" style="endArrow=classic;html=1;rounded=0;exitX=0.5;exitY=1;exitDx=0;exitDy=0;entryX=0.5;entryY=0;entryDx=0;entryDy=0;" edge="1" parent="Yg7wzL1NHxzCarzFCjVd-9" source="Yg7wzL1NHxzCarzFCjVd-16" target="Yg7wzL1NHxzCarzFCjVd-17">
          <mxGeometry width="50" height="50" relative="1" as="geometry">
            <mxPoint x="-50" y="260" as="sourcePoint" />
            <mxPoint y="210" as="targetPoint" />
          </mxGeometry>
        </mxCell>
        <mxCell id="Yg7wzL1NHxzCarzFCjVd-10" value="ЭИОС" style="swimlane;whiteSpace=wrap;html=1;" vertex="1" parent="1">
          <mxGeometry x="390" y="110" width="200" height="360" as="geometry" />
        </mxCell>
        <mxCell id="Yg7wzL1NHxzCarzFCjVd-15" value="Проверка прав доступа" style="rounded=1;whiteSpace=wrap;html=1;" vertex="1" parent="Yg7wzL1NHxzCarzFCjVd-10">
          <mxGeometry x="40" y="40" width="120" height="60" as="geometry" />
        </mxCell>
        <mxCell id="Yg7wzL1NHxzCarzFCjVd-18" value="&#xa;&lt;span style=&quot;color: rgb(240, 240, 240); font-family: Helvetica; font-size: 12px; font-style: normal; font-variant-ligatures: normal; font-variant-caps: normal; font-weight: 400; letter-spacing: normal; orphans: 2; text-align: center; text-indent: 0px; text-transform: none; widows: 2; word-spacing: 0px; -webkit-text-stroke-width: 0px; white-space: normal; background-color: rgb(27, 29, 30); text-decoration-thickness: initial; text-decoration-style: initial; text-decoration-color: initial; display: inline !important; float: none;&quot;&gt;Сохранение баллов за аттестацию&lt;/span&gt;&#xa;&#xa;" style="rounded=1;whiteSpace=wrap;html=1;" vertex="1" parent="Yg7wzL1NHxzCarzFCjVd-10">
          <mxGeometry x="40" y="120" width="120" height="60" as="geometry" />
        </mxCell>
        <mxCell id="Yg7wzL1NHxzCarzFCjVd-19" value="Валидация данных" style="rounded=1;whiteSpace=wrap;html=1;" vertex="1" parent="Yg7wzL1NHxzCarzFCjVd-10">
          <mxGeometry x="40" y="200" width="120" height="60" as="geometry" />
        </mxCell>
        <mxCell id="Yg7wzL1NHxzCarzFCjVd-20" value="Появление данных в системе и отправка уведомлений" style="rounded=1;whiteSpace=wrap;html=1;" vertex="1" parent="Yg7wzL1NHxzCarzFCjVd-10">
          <mxGeometry x="40" y="280" width="120" height="60" as="geometry" />
        </mxCell>
        <mxCell id="Yg7wzL1NHxzCarzFCjVd-26" value="" style="endArrow=classic;html=1;rounded=0;exitX=0.5;exitY=1;exitDx=0;exitDy=0;entryX=0.5;entryY=0;entryDx=0;entryDy=0;" edge="1" parent="Yg7wzL1NHxzCarzFCjVd-10" source="Yg7wzL1NHxzCarzFCjVd-18" target="Yg7wzL1NHxzCarzFCjVd-19">
          <mxGeometry width="50" height="50" relative="1" as="geometry">
            <mxPoint x="-40" y="230" as="sourcePoint" />
            <mxPoint x="10" y="180" as="targetPoint" />
          </mxGeometry>
        </mxCell>
        <mxCell id="Yg7wzL1NHxzCarzFCjVd-27" value="" style="endArrow=classic;html=1;rounded=0;exitX=0.5;exitY=1;exitDx=0;exitDy=0;entryX=0.5;entryY=0;entryDx=0;entryDy=0;" edge="1" parent="Yg7wzL1NHxzCarzFCjVd-10" source="Yg7wzL1NHxzCarzFCjVd-19" target="Yg7wzL1NHxzCarzFCjVd-20">
          <mxGeometry width="50" height="50" relative="1" as="geometry">
            <mxPoint x="-30" y="320" as="sourcePoint" />
            <mxPoint x="20" y="270" as="targetPoint" />
          </mxGeometry>
        </mxCell>
        <mxCell id="Yg7wzL1NHxzCarzFCjVd-11" value="Студент группы КС" style="swimlane;whiteSpace=wrap;html=1;" vertex="1" parent="1">
          <mxGeometry x="590" y="110" width="200" height="360" as="geometry" />
        </mxCell>
        <mxCell id="Yg7wzL1NHxzCarzFCjVd-21" value="Просмотр баллов" style="rounded=1;whiteSpace=wrap;html=1;" vertex="1" parent="Yg7wzL1NHxzCarzFCjVd-11">
          <mxGeometry x="40" y="150" width="120" height="60" as="geometry" />
        </mxCell>
        <mxCell id="Yg7wzL1NHxzCarzFCjVd-12" value="" style="ellipse;html=1;shape=startState;fillColor=#000000;strokeColor=#ff0000;" vertex="1" parent="1">
          <mxGeometry x="70" y="170" width="30" height="30" as="geometry" />
        </mxCell>
        <mxCell id="Yg7wzL1NHxzCarzFCjVd-13" value="" style="edgeStyle=orthogonalEdgeStyle;html=1;verticalAlign=bottom;endArrow=open;endSize=8;strokeColor=#ff0000;rounded=0;" edge="1" source="Yg7wzL1NHxzCarzFCjVd-12" parent="1">
          <mxGeometry relative="1" as="geometry">
            <mxPoint x="230" y="185" as="targetPoint" />
          </mxGeometry>
        </mxCell>
        <mxCell id="Yg7wzL1NHxzCarzFCjVd-22" value="" style="endArrow=classic;html=1;rounded=0;exitX=1;exitY=0.5;exitDx=0;exitDy=0;entryX=0;entryY=0.5;entryDx=0;entryDy=0;" edge="1" parent="1" source="Yg7wzL1NHxzCarzFCjVd-14" target="Yg7wzL1NHxzCarzFCjVd-15">
          <mxGeometry width="50" height="50" relative="1" as="geometry">
            <mxPoint x="370" y="210" as="sourcePoint" />
            <mxPoint x="420" y="160" as="targetPoint" />
          </mxGeometry>
        </mxCell>
        <mxCell id="Yg7wzL1NHxzCarzFCjVd-23" value="" style="endArrow=classic;html=1;rounded=0;exitX=0.5;exitY=1;exitDx=0;exitDy=0;entryX=0.417;entryY=0;entryDx=0;entryDy=0;entryPerimeter=0;" edge="1" parent="1" source="Yg7wzL1NHxzCarzFCjVd-15" target="Yg7wzL1NHxzCarzFCjVd-16">
          <mxGeometry width="50" height="50" relative="1" as="geometry">
            <mxPoint x="350" y="250" as="sourcePoint" />
            <mxPoint x="400" y="200" as="targetPoint" />
          </mxGeometry>
        </mxCell>
        <mxCell id="Yg7wzL1NHxzCarzFCjVd-25" value="" style="endArrow=classic;html=1;rounded=0;exitX=1;exitY=0.5;exitDx=0;exitDy=0;entryX=0;entryY=0.5;entryDx=0;entryDy=0;" edge="1" parent="1" source="Yg7wzL1NHxzCarzFCjVd-17" target="Yg7wzL1NHxzCarzFCjVd-18">
          <mxGeometry width="50" height="50" relative="1" as="geometry">
            <mxPoint x="360" y="400" as="sourcePoint" />
            <mxPoint x="410" y="350" as="targetPoint" />
          </mxGeometry>
        </mxCell>
        <mxCell id="Yg7wzL1NHxzCarzFCjVd-28" value="" style="endArrow=classic;html=1;rounded=0;exitX=1;exitY=0.5;exitDx=0;exitDy=0;entryX=0;entryY=0.5;entryDx=0;entryDy=0;" edge="1" parent="1" source="Yg7wzL1NHxzCarzFCjVd-20" target="Yg7wzL1NHxzCarzFCjVd-21">
          <mxGeometry width="50" height="50" relative="1" as="geometry">
            <mxPoint x="570" y="380" as="sourcePoint" />
            <mxPoint x="620" y="330" as="targetPoint" />
          </mxGeometry>
        </mxCell>
        <mxCell id="Yg7wzL1NHxzCarzFCjVd-29" value="" style="ellipse;html=1;shape=endState;fillColor=#000000;strokeColor=#ff0000;" vertex="1" parent="1">
          <mxGeometry x="475" y="540" width="30" height="30" as="geometry" />
        </mxCell>
        <mxCell id="Yg7wzL1NHxzCarzFCjVd-30" value="" style="endArrow=classic;html=1;rounded=0;exitX=0.5;exitY=1;exitDx=0;exitDy=0;entryX=0.5;entryY=0;entryDx=0;entryDy=0;" edge="1" parent="1" source="Yg7wzL1NHxzCarzFCjVd-20" target="Yg7wzL1NHxzCarzFCjVd-29">
          <mxGeometry width="50" height="50" relative="1" as="geometry">
            <mxPoint x="360" y="550" as="sourcePoint" />
            <mxPoint x="410" y="500" as="targetPoint" />
          </mxGeometry>
        </mxCell>
      </root>
    </mxGraphModel>
  </diagram>
</mxfile>
